<?xml version="1.0" standalone="no"?>
<!DOCTYPE svg PUBLIC "-//W3C//DTD SVG 20010904//EN"
 "http://www.w3.org/TR/2001/REC-SVG-20010904/DTD/svg10.dtd">
<svg version="1.0" xmlns="http://www.w3.org/2000/svg"
 width="1140.000000pt" height="1273.000000pt" viewBox="0 0 1140.000000 1273.000000"
 preserveAspectRatio="xMidYMid meet">

<g transform="translate(0.000000,1273.000000) scale(0.100000,-0.100000)"
fill="#000000" stroke="none">
<path d="M6880 12030 c-245 -15 -491 -47 -870 -111 -138 -24 -410 -89 -640
-155 -121 -34 -425 -141 -589 -206 -376 -151 -673 -307 -1084 -570 -75 -48
-147 -88 -160 -88 -28 0 -273 -43 -397 -69 -209 -45 -240 -52 -365 -87 -204
-57 -352 -112 -625 -236 -468 -212 -913 -524 -1238 -870 -319 -339 -470 -655
-447 -938 27 -329 263 -606 631 -745 70 -26 231 -73 319 -93 69 -16 360 -52
418 -52 28 0 47 -5 47 -11 0 -23 -101 -219 -189 -367 -158 -268 -280 -413
-515 -615 -284 -245 -471 -453 -593 -662 -171 -292 -248 -546 -260 -848 -12
-304 43 -553 182 -829 165 -325 456 -591 783 -714 46 -17 83 -35 83 -40 -1 -5
-71 -50 -156 -99 -266 -154 -295 -184 -295 -294 0 -81 22 -124 193 -381 394
-593 934 -1130 1522 -1512 516 -335 1145 -598 1725 -723 41 -9 93 -20 115 -26
83 -19 416 -69 575 -86 234 -24 802 -24 1025 1 571 62 1117 206 1617 427 788
348 1438 843 1989 1514 123 150 382 512 400 560 2 6 24 43 49 84 37 62 45 85
48 136 5 71 -8 102 -60 152 -35 34 -210 139 -340 204 -43 22 -78 43 -78 47 0
5 28 16 62 26 61 17 236 100 293 139 108 74 223 168 286 235 136 142 282 384
343 567 44 132 46 138 67 282 17 113 20 168 16 303 -9 289 -70 523 -206 787
-130 252 -272 425 -541 661 -236 206 -317 286 -425 422 -192 240 -310 447
-553 970 l-63 136 15 64 c20 88 34 245 41 485 3 110 8 239 11 287 l6 88 52 37
c28 20 98 74 156 118 58 45 126 93 152 108 105 60 381 308 535 478 83 93 174
221 205 289 59 129 75 183 89 291 23 192 -28 370 -158 550 -159 221 -474 438
-910 625 -111 47 -402 148 -553 190 -75 21 -124 33 -330 75 -44 10 -172 31
-300 50 -244 37 -824 57 -1110 39z m-715 -3190 c391 -29 768 -80 1105 -149
285 -59 728 -188 960 -280 162 -64 408 -189 425 -215 9 -13 32 -63 51 -112 36
-89 157 -358 230 -509 54 -113 208 -370 300 -502 123 -175 260 -328 405 -454
255 -220 303 -264 381 -354 367 -419 496 -912 368 -1396 -66 -249 -248 -511
-461 -662 -129 -91 -299 -166 -454 -198 -36 -8 -137 -13 -252 -14 l-193 0 0
-31 c0 -17 7 -75 15 -130 91 -600 114 -928 81 -1144 -16 -106 -72 -271 -117
-345 -139 -230 -660 -615 -1204 -889 -238 -120 -258 -129 -545 -239 -175 -68
-508 -161 -770 -216 -53 -11 -358 -54 -510 -72 -248 -28 -666 -21 -990 17
-352 42 -537 78 -835 164 -407 117 -772 272 -1135 480 -420 242 -871 610 -962
785 -86 167 -114 332 -105 611 4 100 11 203 16 230 5 27 14 101 21 164 6 63
18 158 26 210 8 52 19 124 24 160 18 120 30 195 36 216 6 21 4 22 -213 27
-245 6 -310 17 -468 83 -176 74 -394 244 -503 392 -111 150 -188 339 -223 542
-14 85 -11 354 5 445 66 363 233 662 527 940 41 39 134 121 206 184 214 184
338 321 490 547 55 80 77 120 177 309 101 191 128 249 236 510 45 110 88 212
96 226 18 36 209 128 464 225 36 13 74 29 85 34 40 18 363 122 515 165 161 45
432 109 510 120 25 3 79 13 120 21 263 50 758 104 1090 118 155 6 833 -3 975
-14z"/>
<path d="M4190 7435 c-89 -25 -139 -54 -205 -119 -272 -268 -130 -746 238
-799 64 -9 80 -8 144 12 181 54 300 213 318 423 13 143 -37 297 -124 386 -89
91 -245 132 -371 97z m230 -107 c24 -13 58 -40 74 -61 27 -33 31 -47 31 -97 0
-71 -21 -105 -85 -137 -187 -96 -350 128 -194 266 64 56 106 63 174 29z"/>
<path d="M6650 7413 c-31 -15 -84 -56 -121 -93 -75 -74 -103 -133 -120 -258
-16 -113 -5 -182 46 -287 97 -201 272 -298 464 -255 80 18 127 44 199 113 78
75 116 151 132 263 31 215 -66 411 -248 501 -72 36 -81 38 -186 40 -103 2
-115 1 -166 -24z m174 -107 c75 -57 94 -129 54 -206 -58 -111 -233 -121 -298
-16 -50 82 -27 173 59 228 39 25 54 29 98 25 37 -2 62 -11 87 -31z"/>
<path d="M6232 5348 c-16 -13 -58 -45 -92 -73 -113 -92 -239 -146 -421 -181
-64 -12 -117 -15 -224 -11 -253 11 -414 71 -577 217 -31 27 -69 53 -85 56 -64
13 -143 -52 -143 -116 1 -106 172 -241 435 -345 225 -89 553 -90 829 -3 73 23
228 98 293 143 53 36 144 126 154 153 24 63 -10 142 -73 167 -50 20 -59 19
-96 -7z"/>
</g>
</svg>
